<svg width="25" height="24" viewBox="0 0 25 24" fill="none" xmlns="http://www.w3.org/2000/svg">
<path d="M14.5454 9.40991H12.8347V16.5094H14.5454V9.40991Z" fill="#808080"/>
<path d="M11.023 9.40991H9.31226V16.5094H11.023V9.40991Z" fill="#808080"/>
<path d="M20.0432 5.7863C20.0398 5.61078 19.9807 5.44087 19.8745 5.30111C19.7683 5.16134 19.6204 5.05894 19.4522 5.0087V5.0087C19.3766 4.97719 19.2966 4.95752 19.215 4.95038H14.6544C14.4818 4.38588 14.1325 3.89171 13.6579 3.54061C13.1834 3.1895 12.6087 3 12.0184 3C11.4281 3 10.8533 3.1895 10.3788 3.54061C9.90426 3.89171 9.55496 4.38588 9.38232 4.95038H4.82171C4.74659 4.95189 4.67203 4.96366 4.60009 4.98537H4.58065C4.40266 5.04044 4.24858 5.15418 4.14352 5.30805C4.03847 5.46192 3.98865 5.64685 4.00218 5.83267C4.01571 6.01849 4.09179 6.19425 4.21803 6.33128C4.34427 6.46831 4.5132 6.55853 4.69729 6.58723L5.61097 19.1143C5.62491 19.6021 5.82176 20.0668 6.16245 20.4161C6.50314 20.7654 6.96274 20.9738 7.44999 21H16.5829C17.0708 20.9748 17.5314 20.7668 17.8729 20.4174C18.2144 20.0679 18.4118 19.6027 18.4258 19.1143L19.3356 6.59889C19.5317 6.57167 19.7114 6.47441 19.8415 6.32505C19.9715 6.1757 20.0432 5.98434 20.0432 5.7863V5.7863ZM12.0184 4.56158C12.185 4.5616 12.3498 4.59616 12.5024 4.66308C12.6549 4.73 12.792 4.82783 12.9048 4.95038H11.1319C11.2445 4.82745 11.3815 4.72937 11.5341 4.66242C11.6868 4.59547 11.8517 4.56113 12.0184 4.56158V4.56158ZM16.5829 19.4448H7.44999C7.34501 19.4448 7.18172 19.2737 7.16228 19.0016L6.26026 6.61444H17.7765L16.8745 19.0016C16.855 19.2737 16.6917 19.4448 16.5829 19.4448Z" fill="#808080"/>
</svg>